<?xml version="1.0" encoding="UTF-8" standalone="no"?>
<svg
   xmlns:dc="http://purl.org/dc/elements/1.1/"
   xmlns:cc="http://creativecommons.org/ns#"
   xmlns:rdf="http://www.w3.org/1999/02/22-rdf-syntax-ns#"
   xmlns:svg="http://www.w3.org/2000/svg"
   xmlns="http://www.w3.org/2000/svg"
   width="5.5562501mm"
   height="5.5562501mm"
   viewBox="0 0 5.5562501 5.5562501"
   version="1.1"
   id="svg83">
  <defs
     id="defs77" />
  <metadata
     id="metadata80">
    <rdf:RDF>
      <cc:Work
         rdf:about="">
        <dc:format>image/svg+xml</dc:format>
        <dc:type
           rdf:resource="http://purl.org/dc/dcmitype/StillImage" />
        <dc:title></dc:title>
      </cc:Work>
    </rdf:RDF>
  </metadata>
  <g
     id="layer1"
     transform="translate(-93.227828,-19.144494)">
    <g
       class="inbug"
       stroke="none"
       stroke-width="1"
       fill="none"
       fill-rule="evenodd"
       id="g42"
       transform="matrix(0.26458333,0,0,0.26458333,76.559078,19.144494)"
       style="stroke-width:0;stroke-miterlimit:4;stroke-dasharray:none;stroke:#d6c700;stroke-opacity:1">
      <path
         d="M 19.479,0 H 1.583 C 0.727,0 0,0.677 0,1.511 V 19.488 C 0,20.323 0.477,21 1.333,21 H 19.229 C 20.086,21 21,20.323 21,19.488 V 1.511 C 21,0.677 20.336,0 19.479,0"
         class="bug-text-color"
         transform="translate(63)"
         id="path38"
         style="stroke-width:0;stroke-miterlimit:4;stroke-dasharray:none;stroke:#d6c700;stroke-opacity:1" />
      <path
         d="M 82.479,0 H 64.583 C 63.727,0 63,0.677 63,1.511 V 19.488 C 63,20.323 63.477,21 64.333,21 H 82.229 C 83.086,21 84,20.323 84,19.488 V 1.511 C 84,0.677 83.336,0 82.479,0 Z M 71,8 h 2.827 v 1.441 h 0.031 C 74.289,8.664 75.562,7.875 77.136,7.875 80.157,7.875 81,9.479 81,12.45 V 18 H 78 V 12.997 C 78,11.667 77.469,10.5 76.227,10.5 74.719,10.5 74,11.521 74,13.197 V 18 h -3 z m -5,10 h 3 V 8 H 66 Z M 69.375,4.5 c 0,1.036 -0.839,1.875 -1.875,1.875 -1.036,0 -1.875,-0.839 -1.875,-1.875 0,-1.036 0.839,-1.875 1.875,-1.875 1.036,0 1.875,0.839 1.875,1.875 z"
         class="background"
         fill="currentColor"
         id="path40"
         style="stroke-width:0;stroke-miterlimit:4;stroke-dasharray:none;stroke:#d6c700;stroke-opacity:1;fill:#0a66c2;fill-opacity:1" />
    </g>
  </g>
</svg>
